# xmcd CD database file
#
# Track frame offsets:
#	150
#	39068
#	79495
#	102971
#	148662
#	228672
#	265178
#
# Disc length: 4348 seconds
#
# Revision: 0
# Processed by: cddbd v1.5.1PL0 Copyright (c) Steve Scherf et al.
# Submitted via: CDex 1.51
#
DISCID=5810fa07
DTITLE=Pat Metheny Group - Live at Hofstra Playhouse 1/2
DYEAR=1979
DGENRE=Jazz
TTITLE0=introduction > Phase Dance
TTITLE1=Airstream > Pat speaks
TTITLE2=April Joy
TTITLE3=Unity Village > solo guitar improvisation > The Windup
TTITLE4=The Epic
TTITLE5=James
TTITLE6=Old Folks > Jaco
EXTD=YEAR: 1979
EXTT0=
EXTT1=
EXTT2=
EXTT3=
EXTT4=
EXTT5=
EXTT6=
PLAYORDER=
